<mxfile host="app.diagrams.net" modified="2022-05-24T04:44:22.898Z" agent="5.0 (Windows NT 10.0; Win64; x64) AppleWebKit/537.36 (KHTML, like Gecko) Chrome/100.0.4896.75 Safari/537.36" etag="iCirSITa96GTsjh_vVoB" version="18.1.1" type="github">
  <diagram id="GWL1tyACcfKWv3i7i1S1" name="第 1 页">
    <mxGraphModel dx="2249" dy="794" grid="1" gridSize="10" guides="1" tooltips="1" connect="1" arrows="1" fold="1" page="1" pageScale="1" pageWidth="827" pageHeight="1169" math="0" shadow="0">
      <root>
        <mxCell id="0" />
        <mxCell id="1" parent="0" />
        <mxCell id="rnqOAp0dXpBQ4vosInEp-37" value="" style="endArrow=none;dashed=1;html=1;dashPattern=1 3;strokeWidth=2;rounded=0;" parent="1" edge="1">
          <mxGeometry width="50" height="50" relative="1" as="geometry">
            <mxPoint x="-85" y="546" as="sourcePoint" />
            <mxPoint x="765" y="546" as="targetPoint" />
          </mxGeometry>
        </mxCell>
        <mxCell id="rnqOAp0dXpBQ4vosInEp-25" value="" style="endArrow=none;dashed=1;html=1;dashPattern=1 3;strokeWidth=2;rounded=0;" parent="1" edge="1">
          <mxGeometry width="50" height="50" relative="1" as="geometry">
            <mxPoint x="-80" y="326" as="sourcePoint" />
            <mxPoint x="770" y="326" as="targetPoint" />
          </mxGeometry>
        </mxCell>
        <mxCell id="rnqOAp0dXpBQ4vosInEp-1" value="" style="endArrow=none;dashed=1;html=1;dashPattern=1 3;strokeWidth=2;rounded=0;" parent="1" edge="1">
          <mxGeometry width="50" height="50" relative="1" as="geometry">
            <mxPoint x="-90" y="116" as="sourcePoint" />
            <mxPoint x="760" y="116" as="targetPoint" />
          </mxGeometry>
        </mxCell>
        <mxCell id="rnqOAp0dXpBQ4vosInEp-2" value="展示层" style="text;html=1;strokeColor=none;fillColor=none;align=center;verticalAlign=middle;whiteSpace=wrap;rounded=0;fontSize=32;horizontal=1;fontStyle=0" parent="1" vertex="1">
          <mxGeometry x="730" y="165" width="30" height="125" as="geometry" />
        </mxCell>
        <mxCell id="rnqOAp0dXpBQ4vosInEp-3" value="View" style="rounded=0;whiteSpace=wrap;html=1;fontSize=20;fillColor=#f5f5f5;fontColor=#333333;strokeColor=#666666;verticalAlign=top;align=left;fontStyle=1;strokeWidth=2;" parent="1" vertex="1">
          <mxGeometry x="490" y="130" width="230" height="180" as="geometry" />
        </mxCell>
        <mxCell id="rnqOAp0dXpBQ4vosInEp-11" value="" style="group;fontStyle=1;strokeWidth=1;" parent="1" vertex="1" connectable="0">
          <mxGeometry x="520" y="180" width="170" height="110" as="geometry" />
        </mxCell>
        <mxCell id="rnqOAp0dXpBQ4vosInEp-4" value="HTML" style="rounded=0;whiteSpace=wrap;html=1;fontSize=14;strokeWidth=2;" parent="rnqOAp0dXpBQ4vosInEp-11" vertex="1">
          <mxGeometry width="80" height="30" as="geometry" />
        </mxCell>
        <mxCell id="rnqOAp0dXpBQ4vosInEp-6" value="CSS" style="rounded=0;whiteSpace=wrap;html=1;fontSize=14;strokeWidth=2;" parent="rnqOAp0dXpBQ4vosInEp-11" vertex="1">
          <mxGeometry y="40" width="80" height="30" as="geometry" />
        </mxCell>
        <mxCell id="rnqOAp0dXpBQ4vosInEp-7" value="JavaScript" style="rounded=0;whiteSpace=wrap;html=1;fontSize=14;strokeWidth=2;" parent="rnqOAp0dXpBQ4vosInEp-11" vertex="1">
          <mxGeometry y="80" width="80" height="30" as="geometry" />
        </mxCell>
        <mxCell id="rnqOAp0dXpBQ4vosInEp-8" value="BootStrap" style="rounded=0;whiteSpace=wrap;html=1;fontSize=14;fontStyle=1;strokeWidth=2;" parent="rnqOAp0dXpBQ4vosInEp-11" vertex="1">
          <mxGeometry x="90" width="80" height="30" as="geometry" />
        </mxCell>
        <mxCell id="rnqOAp0dXpBQ4vosInEp-9" value="JQuery" style="rounded=0;whiteSpace=wrap;html=1;fontSize=14;fontStyle=1;strokeWidth=2;" parent="rnqOAp0dXpBQ4vosInEp-11" vertex="1">
          <mxGeometry x="90" y="40" width="80" height="30" as="geometry" />
        </mxCell>
        <mxCell id="rnqOAp0dXpBQ4vosInEp-10" value="Vue" style="rounded=0;whiteSpace=wrap;html=1;fontSize=14;fontStyle=1;strokeWidth=2;" parent="rnqOAp0dXpBQ4vosInEp-11" vertex="1">
          <mxGeometry x="90" y="80" width="80" height="30" as="geometry" />
        </mxCell>
        <mxCell id="rnqOAp0dXpBQ4vosInEp-12" value="Spring MVC" style="rounded=0;whiteSpace=wrap;html=1;fontSize=24;fillColor=#f5f5f5;fontColor=#333333;strokeColor=#666666;verticalAlign=top;align=left;fontStyle=1;strokeWidth=2;" parent="1" vertex="1">
          <mxGeometry x="60" y="130" width="354" height="180" as="geometry" />
        </mxCell>
        <mxCell id="rnqOAp0dXpBQ4vosInEp-14" value="Controller" style="rounded=0;whiteSpace=wrap;html=1;fontSize=16;fontStyle=1;strokeWidth=2;" parent="1" vertex="1">
          <mxGeometry x="80" y="200" width="120" height="40" as="geometry" />
        </mxCell>
        <mxCell id="rnqOAp0dXpBQ4vosInEp-15" value="View" style="rounded=0;whiteSpace=wrap;html=1;fontSize=16;strokeWidth=2;fontStyle=1" parent="1" vertex="1">
          <mxGeometry x="300" y="173" width="80" height="40" as="geometry" />
        </mxCell>
        <mxCell id="rnqOAp0dXpBQ4vosInEp-16" value="Model" style="rounded=0;whiteSpace=wrap;html=1;fontSize=16;strokeWidth=2;fontStyle=1" parent="1" vertex="1">
          <mxGeometry x="300" y="223" width="80" height="40" as="geometry" />
        </mxCell>
        <mxCell id="rnqOAp0dXpBQ4vosInEp-17" value="" style="shape=curlyBracket;whiteSpace=wrap;html=1;rounded=1;fontSize=16;strokeWidth=1;" parent="1" vertex="1">
          <mxGeometry x="270" y="173" width="20" height="90" as="geometry" />
        </mxCell>
        <mxCell id="rnqOAp0dXpBQ4vosInEp-18" value="" style="shape=curlyBracket;whiteSpace=wrap;html=1;rounded=1;flipH=1;fontSize=16;strokeWidth=1;" parent="1" vertex="1">
          <mxGeometry x="390" y="172" width="20" height="93" as="geometry" />
        </mxCell>
        <mxCell id="rnqOAp0dXpBQ4vosInEp-20" value="" style="html=1;shadow=0;dashed=0;align=center;verticalAlign=middle;shape=mxgraph.arrows2.arrow;dy=0.67;dx=20;notch=0;fontSize=16;strokeWidth=1;" parent="1" vertex="1">
          <mxGeometry x="201" y="206" width="70" height="24.5" as="geometry" />
        </mxCell>
        <mxCell id="rnqOAp0dXpBQ4vosInEp-22" value="" style="html=1;shadow=0;dashed=0;align=center;verticalAlign=middle;shape=mxgraph.arrows2.twoWayArrow;dy=0.65;dx=22;fontSize=16;strokeWidth=1;" parent="1" vertex="1">
          <mxGeometry x="410" y="207.5" width="80" height="22" as="geometry" />
        </mxCell>
        <mxCell id="rnqOAp0dXpBQ4vosInEp-23" value="权限管理" style="rounded=0;whiteSpace=wrap;html=1;fontSize=18;strokeWidth=2;fillColor=#f5f5f5;fontColor=#333333;strokeColor=#666666;" parent="1" vertex="1">
          <mxGeometry x="-1" y="130" width="30" height="400" as="geometry" />
        </mxCell>
        <mxCell id="rnqOAp0dXpBQ4vosInEp-24" value="日志管理" style="rounded=0;whiteSpace=wrap;html=1;fontSize=18;strokeWidth=2;fillColor=#f5f5f5;fontColor=#333333;strokeColor=#666666;" parent="1" vertex="1">
          <mxGeometry x="-90" y="130" width="30" height="620" as="geometry" />
        </mxCell>
        <mxCell id="rnqOAp0dXpBQ4vosInEp-26" value="Service" style="rounded=0;whiteSpace=wrap;html=1;fontSize=20;strokeWidth=2;fillColor=#f5f5f5;fontColor=#333333;strokeColor=#666666;fontStyle=1;verticalAlign=top;align=left;" parent="1" vertex="1">
          <mxGeometry x="170" y="360" width="550" height="170" as="geometry" />
        </mxCell>
        <mxCell id="rnqOAp0dXpBQ4vosInEp-35" value="" style="group" parent="1" vertex="1" connectable="0">
          <mxGeometry x="250" y="389" width="430" height="141" as="geometry" />
        </mxCell>
        <mxCell id="rnqOAp0dXpBQ4vosInEp-27" value="课程管理" style="rounded=0;whiteSpace=wrap;html=1;fontSize=16;strokeWidth=2;" parent="rnqOAp0dXpBQ4vosInEp-35" vertex="1">
          <mxGeometry width="120" height="40" as="geometry" />
        </mxCell>
        <mxCell id="rnqOAp0dXpBQ4vosInEp-28" value="作业管理" style="rounded=0;whiteSpace=wrap;html=1;fontSize=16;strokeWidth=2;" parent="rnqOAp0dXpBQ4vosInEp-35" vertex="1">
          <mxGeometry y="50" width="120" height="40" as="geometry" />
        </mxCell>
        <mxCell id="rnqOAp0dXpBQ4vosInEp-29" value="学生管理" style="rounded=0;whiteSpace=wrap;html=1;fontSize=16;strokeWidth=2;" parent="rnqOAp0dXpBQ4vosInEp-35" vertex="1">
          <mxGeometry x="310" width="120" height="40" as="geometry" />
        </mxCell>
        <mxCell id="rnqOAp0dXpBQ4vosInEp-30" value="教师管理" style="rounded=0;whiteSpace=wrap;html=1;fontSize=16;strokeWidth=2;" parent="rnqOAp0dXpBQ4vosInEp-35" vertex="1">
          <mxGeometry x="160" width="120" height="40" as="geometry" />
        </mxCell>
        <mxCell id="rnqOAp0dXpBQ4vosInEp-31" value="留言管理" style="rounded=0;whiteSpace=wrap;html=1;fontSize=16;strokeWidth=2;" parent="rnqOAp0dXpBQ4vosInEp-35" vertex="1">
          <mxGeometry x="160" y="50" width="120" height="40" as="geometry" />
        </mxCell>
        <mxCell id="rnqOAp0dXpBQ4vosInEp-32" value="回答管理" style="rounded=0;whiteSpace=wrap;html=1;fontSize=16;strokeWidth=2;fontStyle=0" parent="rnqOAp0dXpBQ4vosInEp-35" vertex="1">
          <mxGeometry x="310" y="50" width="120" height="40" as="geometry" />
        </mxCell>
        <mxCell id="rnqOAp0dXpBQ4vosInEp-33" value="" style="shape=curlyBracket;whiteSpace=wrap;html=1;rounded=1;flipH=1;fontSize=16;strokeWidth=1;rotation=90;" parent="rnqOAp0dXpBQ4vosInEp-35" vertex="1">
          <mxGeometry x="205.5" y="-108.5" width="20" height="425" as="geometry" />
        </mxCell>
        <mxCell id="rnqOAp0dXpBQ4vosInEp-34" value="Spring Bean" style="text;html=1;strokeColor=none;fillColor=none;align=center;verticalAlign=middle;whiteSpace=wrap;rounded=0;fontSize=16;" parent="rnqOAp0dXpBQ4vosInEp-35" vertex="1">
          <mxGeometry x="155.5" y="111" width="120" height="30" as="geometry" />
        </mxCell>
        <mxCell id="rnqOAp0dXpBQ4vosInEp-36" value="" style="shape=curlyBracket;whiteSpace=wrap;html=1;rounded=1;fontFamily=宋体;fontSize=18;strokeWidth=2;" parent="1" vertex="1">
          <mxGeometry x="31" y="135" width="20" height="388" as="geometry" />
        </mxCell>
        <mxCell id="rnqOAp0dXpBQ4vosInEp-38" value="MyBatis" style="rounded=0;whiteSpace=wrap;html=1;fontFamily=Helvetica;fontSize=20;strokeWidth=2;fillColor=#f5f5f5;fontColor=#333333;strokeColor=#666666;align=left;verticalAlign=top;fontStyle=1" parent="1" vertex="1">
          <mxGeometry x="60" y="580" width="660" height="170" as="geometry" />
        </mxCell>
        <mxCell id="rnqOAp0dXpBQ4vosInEp-39" value="DAO" style="rounded=0;whiteSpace=wrap;html=1;fontFamily=Helvetica;fontSize=16;strokeWidth=2;fontStyle=0" parent="1" vertex="1">
          <mxGeometry x="160" y="620" width="70" height="30" as="geometry" />
        </mxCell>
        <mxCell id="rnqOAp0dXpBQ4vosInEp-40" value="DAO" style="rounded=0;whiteSpace=wrap;html=1;fontFamily=Helvetica;fontSize=16;strokeWidth=2;fontStyle=0" parent="1" vertex="1">
          <mxGeometry x="160" y="670" width="70" height="30" as="geometry" />
        </mxCell>
        <mxCell id="rnqOAp0dXpBQ4vosInEp-41" value="Mapper.xml" style="rounded=0;whiteSpace=wrap;html=1;fontFamily=Helvetica;fontSize=16;strokeWidth=2;" parent="1" vertex="1">
          <mxGeometry x="330" y="620" width="106" height="30" as="geometry" />
        </mxCell>
        <mxCell id="rnqOAp0dXpBQ4vosInEp-43" value="Mapper.xml" style="rounded=0;whiteSpace=wrap;html=1;fontFamily=Helvetica;fontSize=16;strokeWidth=2;" parent="1" vertex="1">
          <mxGeometry x="330" y="670" width="106" height="30" as="geometry" />
        </mxCell>
        <mxCell id="rnqOAp0dXpBQ4vosInEp-44" value="动态代理" style="html=1;shadow=0;dashed=0;align=center;verticalAlign=top;shape=mxgraph.arrows2.twoWayArrow;dy=0.62;dx=17;fontFamily=Helvetica;fontSize=12;strokeWidth=1;labelPosition=center;verticalLabelPosition=top;spacing=8;" parent="1" vertex="1">
          <mxGeometry x="235" y="625" width="90" height="20" as="geometry" />
        </mxCell>
        <mxCell id="rnqOAp0dXpBQ4vosInEp-45" value="动态代理" style="html=1;shadow=0;dashed=0;align=center;verticalAlign=top;shape=mxgraph.arrows2.twoWayArrow;dy=0.62;dx=17;fontFamily=Helvetica;fontSize=12;strokeWidth=1;labelPosition=center;verticalLabelPosition=top;spacing=8;" parent="1" vertex="1">
          <mxGeometry x="235" y="675" width="90" height="20" as="geometry" />
        </mxCell>
        <mxCell id="rnqOAp0dXpBQ4vosInEp-46" value="……" style="text;html=1;strokeColor=none;fillColor=none;align=center;verticalAlign=middle;whiteSpace=wrap;rounded=0;fontFamily=Helvetica;fontSize=12;fontStyle=1" parent="1" vertex="1">
          <mxGeometry x="250" y="706" width="60" height="10" as="geometry" />
        </mxCell>
        <mxCell id="rnqOAp0dXpBQ4vosInEp-47" value="动态SQL" style="rounded=0;whiteSpace=wrap;html=1;fontFamily=Helvetica;fontSize=16;strokeWidth=2;" parent="1" vertex="1">
          <mxGeometry x="480" y="635" width="90" height="40" as="geometry" />
        </mxCell>
        <mxCell id="rnqOAp0dXpBQ4vosInEp-48" value="数据库连接" style="rounded=0;whiteSpace=wrap;html=1;fontFamily=Helvetica;fontSize=16;strokeWidth=2;" parent="1" vertex="1">
          <mxGeometry x="597" y="635" width="90" height="40" as="geometry" />
        </mxCell>
        <mxCell id="rnqOAp0dXpBQ4vosInEp-49" value="" style="shape=curlyBracket;whiteSpace=wrap;html=1;rounded=1;fontFamily=Helvetica;fontSize=16;strokeWidth=1;" parent="1" vertex="1">
          <mxGeometry x="135" y="622" width="20" height="75" as="geometry" />
        </mxCell>
        <mxCell id="rnqOAp0dXpBQ4vosInEp-50" value="SpringBean" style="text;html=1;strokeColor=none;fillColor=none;align=center;verticalAlign=middle;whiteSpace=wrap;rounded=0;fontFamily=Helvetica;fontSize=12;fontStyle=1" parent="1" vertex="1">
          <mxGeometry x="70" y="644.5" width="60" height="30" as="geometry" />
        </mxCell>
        <mxCell id="rnqOAp0dXpBQ4vosInEp-51" value="" style="html=1;shadow=0;dashed=0;align=center;verticalAlign=middle;shape=mxgraph.arrows2.twoWayArrow;dy=0.65;dx=22;fontFamily=Helvetica;fontSize=12;strokeWidth=2;rotation=90;fillColor=#f5f5f5;fontColor=#333333;strokeColor=#666666;" parent="1" vertex="1">
          <mxGeometry x="-67.5" y="392.5" width="335" height="35" as="geometry" />
        </mxCell>
        <mxCell id="rnqOAp0dXpBQ4vosInEp-52" value="Spring IOC" style="html=1;shadow=0;dashed=0;align=center;verticalAlign=middle;shape=mxgraph.arrows2.twoWayArrow;dy=0.65;dx=22;fontFamily=Helvetica;fontSize=12;strokeWidth=2;rotation=270;fillColor=#f5f5f5;fontColor=#000000;strokeColor=#666666;fontStyle=1" parent="1" vertex="1">
          <mxGeometry x="135" y="282.5" width="115" height="35" as="geometry" />
        </mxCell>
        <mxCell id="rnqOAp0dXpBQ4vosInEp-53" value="业务层" style="text;html=1;strokeColor=none;fillColor=none;align=center;verticalAlign=middle;whiteSpace=wrap;rounded=0;fontSize=32;horizontal=1;fontStyle=0" parent="1" vertex="1">
          <mxGeometry x="730" y="382.5" width="30" height="125" as="geometry" />
        </mxCell>
        <mxCell id="rnqOAp0dXpBQ4vosInEp-54" value="持久层" style="text;html=1;strokeColor=none;fillColor=none;align=center;verticalAlign=middle;whiteSpace=wrap;rounded=0;fontSize=32;horizontal=1;fontStyle=0" parent="1" vertex="1">
          <mxGeometry x="730" y="602.5" width="30" height="125" as="geometry" />
        </mxCell>
        <mxCell id="rnqOAp0dXpBQ4vosInEp-55" value="" style="endArrow=none;dashed=1;html=1;dashPattern=1 3;strokeWidth=2;rounded=0;" parent="1" edge="1">
          <mxGeometry width="50" height="50" relative="1" as="geometry">
            <mxPoint x="-84" y="776" as="sourcePoint" />
            <mxPoint x="766" y="776" as="targetPoint" />
          </mxGeometry>
        </mxCell>
        <mxCell id="rnqOAp0dXpBQ4vosInEp-56" value="" style="shape=curlyBracket;whiteSpace=wrap;html=1;rounded=1;fontFamily=Helvetica;fontSize=32;fontColor=#000000;strokeWidth=2;" parent="1" vertex="1">
          <mxGeometry x="-40" y="143" width="20" height="597" as="geometry" />
        </mxCell>
        <mxCell id="rnqOAp0dXpBQ4vosInEp-57" value="" style="endArrow=none;dashed=1;html=1;dashPattern=1 3;strokeWidth=2;rounded=0;" parent="1" edge="1">
          <mxGeometry width="50" height="50" relative="1" as="geometry">
            <mxPoint x="-84" y="889" as="sourcePoint" />
            <mxPoint x="766" y="889" as="targetPoint" />
          </mxGeometry>
        </mxCell>
        <mxCell id="rnqOAp0dXpBQ4vosInEp-59" value="MySQL" style="rounded=0;whiteSpace=wrap;html=1;fontFamily=Helvetica;fontSize=20;fontColor=#333333;strokeWidth=2;fillColor=#f5f5f5;strokeColor=#666666;fontStyle=1;align=left;verticalAlign=middle;spacingLeft=42;" parent="1" vertex="1">
          <mxGeometry x="60" y="792" width="660" height="80" as="geometry" />
        </mxCell>
        <mxCell id="rnqOAp0dXpBQ4vosInEp-60" value="索引" style="rounded=0;whiteSpace=wrap;html=1;fontFamily=Helvetica;fontSize=16;fontColor=#000000;strokeWidth=2;" parent="1" vertex="1">
          <mxGeometry x="255" y="812" width="70" height="40" as="geometry" />
        </mxCell>
        <mxCell id="rnqOAp0dXpBQ4vosInEp-61" value="视图" style="rounded=0;whiteSpace=wrap;html=1;fontFamily=Helvetica;fontSize=16;fontColor=#000000;strokeWidth=2;" parent="1" vertex="1">
          <mxGeometry x="380" y="812" width="70" height="40" as="geometry" />
        </mxCell>
        <mxCell id="rnqOAp0dXpBQ4vosInEp-62" value="事务&lt;span style=&quot;color: rgba(0, 0, 0, 0); font-family: monospace; font-size: 0px; text-align: start;&quot;&gt;%3CmxGraphModel%3E%3Croot%3E%3CmxCell%20id%3D%220%22%2F%3E%3CmxCell%20id%3D%221%22%20parent%3D%220%22%2F%3E%3CmxCell%20id%3D%222%22%20value%3D%22%E7%B4%A2%E5%BC%95%22%20style%3D%22rounded%3D0%3BwhiteSpace%3Dwrap%3Bhtml%3D1%3BfontFamily%3DHelvetica%3BfontSize%3D16%3BfontColor%3D%23000000%3BstrokeWidth%3D2%3B%22%20vertex%3D%221%22%20parent%3D%221%22%3E%3CmxGeometry%20x%3D%22255%22%20y%3D%22810%22%20width%3D%2270%22%20height%3D%2240%22%20as%3D%22geometry%22%2F%3E%3C%2FmxCell%3E%3C%2Froot%3E%3C%2FmxGraphModel%3E&lt;/span&gt;" style="rounded=0;whiteSpace=wrap;html=1;fontFamily=Helvetica;fontSize=16;fontColor=#000000;strokeWidth=2;" parent="1" vertex="1">
          <mxGeometry x="505" y="812" width="70" height="40" as="geometry" />
        </mxCell>
        <mxCell id="rnqOAp0dXpBQ4vosInEp-63" value="日志" style="rounded=0;whiteSpace=wrap;html=1;fontFamily=Helvetica;fontSize=16;fontColor=#000000;strokeWidth=2;" parent="1" vertex="1">
          <mxGeometry x="627" y="812" width="70" height="40" as="geometry" />
        </mxCell>
        <mxCell id="rnqOAp0dXpBQ4vosInEp-64" value="数据层" style="text;html=1;strokeColor=none;fillColor=none;align=center;verticalAlign=middle;whiteSpace=wrap;rounded=0;fontSize=32;horizontal=1;fontStyle=0" parent="1" vertex="1">
          <mxGeometry x="730" y="769.5" width="30" height="125" as="geometry" />
        </mxCell>
        <mxCell id="0ebDg6GAo7YLKRXNr9sM-1" value="" style="html=1;shadow=0;dashed=0;align=center;verticalAlign=middle;shape=mxgraph.arrows2.twoWayArrow;dy=0.66;dx=8.63;rotation=90;fillColor=#f5f5f5;fontColor=#333333;strokeColor=#666666;strokeWidth=2;" parent="1" vertex="1">
          <mxGeometry x="393" y="759" width="40.75" height="23.75" as="geometry" />
        </mxCell>
      </root>
    </mxGraphModel>
  </diagram>
</mxfile>
